<?xml version="1.0" encoding="UTF-8"?>
<!DOCTYPE svg PUBLIC "-//W3C//DTD SVG 1.1//EN" "http://www.w3.org/Graphics/SVG/1.1/DTD/svg11.dtd">
<!-- Creator: CorelDRAW 2019 (64 Bit) -->
<svg xmlns="http://www.w3.org/2000/svg" xml:space="preserve" width="16.0345mm" height="21.6187mm" version="1.1" style="shape-rendering:geometricPrecision; text-rendering:geometricPrecision; image-rendering:optimizeQuality; fill-rule:evenodd; clip-rule:evenodd"
viewBox="0 0 596.5 804.23"
 xmlns:xlink="http://www.w3.org/1999/xlink"
 xmlns:xodm="http://www.corel.com/coreldraw/odm/2003">
 <defs>
  <style type="text/css">
   <![CDATA[
    .fil1 {fill:#CF3034;fill-rule:nonzero}
    .fil0 {fill:#3FA14C;fill-rule:nonzero}
   ]]>
  </style>
 </defs>
 <g id="Camada_x0020_1">
  <metadata id="CorelCorpID_0Corel-Layer"/>
  <path class="fil0" d="M389.03 164.74c0,9.28 -7.54,16.8 -16.85,16.8l-139.24 0c-9.3,0 -16.82,-7.53 -16.82,-16.8l0 -139.26c0,-9.29 7.53,-16.82 16.82,-16.82l139.24 0c9.31,0 16.85,7.53 16.85,16.82l0 139.26z"/>
  <path class="fil0" d="M596.5 164.74c0,9.28 -7.54,16.8 -16.82,16.8l-139.26 0c-9.27,0 -16.82,-7.53 -16.82,-16.8l0 -139.26c0,-9.29 7.54,-16.82 16.82,-16.82l139.26 0c9.28,0 16.82,7.53 16.82,16.82l0 139.26z"/>
  <path class="fil0" d="M596.5 579.7c0,9.3 -7.54,16.82 -16.82,16.82l-139.26 0c-9.27,0 -16.82,-7.53 -16.82,-16.82l0 -139.24c0,-9.29 7.54,-16.85 16.82,-16.85l139.26 0c9.28,0 16.82,7.56 16.82,16.85l0 139.24z"/>
  <path class="fil0" d="M181.53 372.08c0,9.29 -7.54,16.84 -16.82,16.84l-139.28 0c-9.27,0 -16.8,-7.54 -16.8,-16.84l0 -139.25c0,-9.31 7.53,-16.83 16.8,-16.83l139.28 0c9.28,0 16.82,7.53 16.82,16.83l0 139.25z"/>
  <path class="fil0" d="M389.03 372.08c0,9.29 -7.54,16.84 -16.85,16.84l-139.24 0c-9.3,0 -16.82,-7.54 -16.82,-16.84l0 -139.25c0,-9.31 7.53,-16.83 16.82,-16.83l139.24 0c9.31,0 16.85,7.53 16.85,16.83l0 139.25z"/>
  <path class="fil0" d="M181.53 579.7c0,9.3 -7.54,16.82 -16.82,16.82l-139.28 0c-9.27,0 -16.8,-7.53 -16.8,-16.82l0 -139.24c0,-9.29 7.53,-16.85 16.8,-16.85l139.28 0c9.28,0 16.82,7.56 16.82,16.85l0 139.24z"/>
  <path class="fil0" d="M389.03 579.7c0,9.3 -7.54,16.82 -16.85,16.82l-139.24 0c-9.3,0 -16.82,-7.53 -16.82,-16.82l0 -139.24c0,-9.29 7.53,-16.85 16.82,-16.85l139.24 0c9.31,0 16.85,7.56 16.85,16.85l0 139.24z"/>
  <path class="fil0" d="M181.53 787.4c0,9.31 -7.54,16.83 -16.82,16.83l-139.28 0c-9.27,0 -16.8,-7.53 -16.8,-16.83l0 -139.23c0,-9.32 7.53,-16.85 16.8,-16.85l139.28 0c9.28,0 16.82,7.53 16.82,16.85l0 139.23z"/>
  <path class="fil0" d="M389.03 787.4c0,9.31 -7.54,16.83 -16.85,16.83l-139.24 0c-9.3,0 -16.82,-7.53 -16.82,-16.83l0 -139.23c0,-9.32 7.53,-16.85 16.82,-16.85l139.24 0c9.31,0 16.85,7.53 16.85,16.85l0 139.23z"/>
  <path class="fil1" d="M190.17 95.1c0,52.54 -42.57,95.07 -95.09,95.07 -52.55,0 -95.09,-42.54 -95.09,-95.07 0,-52.52 42.53,-95.1 95.09,-95.1 52.52,0 95.09,42.58 95.09,95.1z"/>
 </g>
</svg>
